<svg xmlns="http://www.w3.org/2000/svg" xmlns:xlink="http://www.w3.org/1999/xlink" version="1.1" x="0px" y="0px" viewBox="0 0 100 100" style="enable-background:new 0 0 100 100;" xml:space="preserve"><style type="text/css">
	.st0{fill:none;stroke:#ffffff;stroke-width:2;stroke-linejoin:round;stroke-miterlimit:10;}
</style><g><g><path class="st0" d="M52.2,62.9C52.2,62.9,52.2,62.9,52.2,62.9c-0.2-0.3-0.5-0.5-0.7-0.8c0,0,0,0,0,0c-0.2-0.2-0.5-0.4-0.8-0.6    c0,0-0.1-0.1-0.1-0.1c-0.3-0.2-0.5-0.3-0.8-0.5c0,0,0,0-0.1,0c-0.3-0.1-0.6-0.3-0.9-0.4c-0.1,0-0.1,0-0.2-0.1    c-0.3-0.1-0.6-0.2-1-0.3c0.1-0.4,0.1-0.9,0.1-1.3c0-4.3-3.5-7.7-7.7-7.7c-3.1,0-5.8,1.8-7,4.5c-0.1-0.3-0.1-0.7-0.2-1    c0-0.1-0.1-0.2-0.1-0.3c-0.1-0.2-0.1-0.4-0.2-0.6c0-0.1-0.1-0.2-0.1-0.4c-0.1-0.2-0.2-0.4-0.2-0.6c-0.1-0.1-0.1-0.2-0.2-0.4    c-0.1-0.2-0.2-0.4-0.3-0.5c-0.1-0.1-0.1-0.2-0.2-0.3c-0.1-0.2-0.3-0.4-0.4-0.6c-0.1-0.2-0.2-0.3-0.4-0.5c-0.1-0.1-0.2-0.3-0.3-0.4    c-0.1-0.1-0.2-0.3-0.4-0.4c-0.1-0.1-0.2-0.2-0.3-0.3c-0.1-0.1-0.3-0.3-0.4-0.4c-0.1-0.1-0.2-0.2-0.2-0.2c-0.2-0.1-0.3-0.3-0.5-0.4    c-0.1,0-0.1-0.1-0.2-0.1c-0.8-0.7-1.8-1.2-2.8-1.7c0,0-0.1,0-0.1-0.1c-0.2-0.1-0.5-0.2-0.7-0.3c0,0-0.1,0-0.1,0    c-0.3-0.1-0.5-0.2-0.8-0.2l0,0c-1-0.2-2-0.4-3-0.4c-6.7,0-12.2,5.5-12.2,12.2c0,1.2,0.2,2.3,0.5,3.4C6.7,62.5,5,64.9,5,68    c0,4.5,3.7,8,8.2,8H46c4.5,0,8.2-3.5,8.2-8c0-0.9-0.2-1.6-0.4-2.4l0,0C53.5,64.6,52.9,63.8,52.2,62.9z"/><path class="st0" d="M47.6,60.2c0.3,0.1,0.6,0.2,1,0.3C48.3,60.3,48,60.3,47.6,60.2z"/><path class="st0" d="M28.7,48.2c0.2,0.1,0.3,0.3,0.5,0.4C29,48.5,28.9,48.3,28.7,48.2z"/><path class="st0" d="M29.4,48.9c0.1,0.1,0.3,0.3,0.4,0.4C29.7,49.1,29.6,49,29.4,48.9z"/><path class="st0" d="M25.7,46.4c1,0.4,1.9,1,2.8,1.7C27.7,47.4,26.7,46.8,25.7,46.4z"/><path class="st0" d="M32.7,54.3c0,0.1,0.1,0.2,0.1,0.3C32.8,54.5,32.7,54.4,32.7,54.3z"/><path class="st0" d="M24.8,46c-0.3-0.1-0.5-0.2-0.8-0.2l0,0C24.2,45.9,24.5,46,24.8,46z"/><path class="st0" d="M24.9,46.1c0.2,0.1,0.5,0.2,0.7,0.3C25.4,46.3,25.1,46.2,24.9,46.1z"/><path class="st0" d="M53.8,65.8L53.8,65.8c-0.3-1-0.9-2-1.6-2.8C52.9,63.8,53.5,64.7,53.8,65.8z"/><path class="st0" d="M50.7,61.5c0.3,0.2,0.5,0.4,0.8,0.6C51.2,61.9,51,61.7,50.7,61.5z"/><path class="st0" d="M30.1,49.6c0.1,0.1,0.2,0.3,0.4,0.4C30.3,49.8,30.2,49.7,30.1,49.6z"/><path class="st0" d="M32,52.4c0.1,0.1,0.1,0.2,0.2,0.4C32.1,52.6,32,52.5,32,52.4z"/><path class="st0" d="M32.4,53.3c0,0.1,0.1,0.2,0.1,0.4C32.5,53.5,32.4,53.4,32.4,53.3z"/><path class="st0" d="M49.7,60.9c0.3,0.1,0.5,0.3,0.8,0.5C50.3,61.2,50,61.1,49.7,60.9z"/><path class="st0" d="M31.5,51.5c0.1,0.1,0.1,0.2,0.2,0.3C31.6,51.7,31.6,51.6,31.5,51.5z"/><path class="st0" d="M48.8,60.5c0.3,0.1,0.6,0.2,0.9,0.4C49.4,60.8,49.1,60.6,48.8,60.5z"/><path class="st0" d="M30.8,50.4c0.1,0.2,0.3,0.3,0.4,0.5C31,50.7,30.9,50.5,30.8,50.4z"/><path class="st0" d="M51.5,62.2c0.3,0.2,0.5,0.5,0.7,0.7C52,62.7,51.7,62.4,51.5,62.2z"/><path class="st0" d="M64.8,60.7c-0.2-0.7-0.3-1.5-0.3-2.3c0-4.5,3.7-8.2,8.2-8.2c0.7,0,1.4,0.1,2,0.3c0.2,0,0.4,0.1,0.5,0.2    c0,0,0.1,0,0.1,0c0.2,0.1,0.3,0.1,0.5,0.2c0,0,0.1,0,0.1,0c0.7,0.3,1.3,0.7,1.9,1.1c0,0,0.1,0.1,0.1,0.1c0.1,0.1,0.2,0.2,0.3,0.3    c0.1,0.1,0.1,0.1,0.2,0.2c0.1,0.1,0.2,0.2,0.3,0.3c0.1,0.1,0.1,0.1,0.2,0.2c0.1,0.1,0.2,0.2,0.2,0.3c0.1,0.1,0.1,0.2,0.2,0.3    c0.1,0.1,0.2,0.2,0.2,0.3c0.1,0.1,0.2,0.3,0.3,0.4c0,0.1,0.1,0.2,0.1,0.2c0.1,0.1,0.1,0.2,0.2,0.4c0,0.1,0.1,0.2,0.1,0.2    c0.1,0.1,0.1,0.3,0.2,0.4c0,0.1,0.1,0.2,0.1,0.2c0,0.1,0.1,0.3,0.1,0.4c0,0.1,0,0.1,0.1,0.2c0.1,0.2,0.1,0.4,0.1,0.7    c0.8-1.8,2.6-3,4.7-3c0,0,0.1,0,0.1,0c-0.2-5.1-4-9.5-8.8-10.4c0.1-0.6,0.2-1.2,0.2-1.8c0-5.7-4.6-10.3-10.3-10.3    c-4.1,0-7.7,2.4-9.3,6c-1.3-7.7-8-13.5-16.1-13.5c-9,0-16.3,7.3-16.3,16.3c0,1.6,0.2,3.1,0.6,4.5c-0.5,0.3-1,0.6-1.5,1    c4.6,1.2,8.2,5,9,9.8c1.2-2.6,3.9-4.5,7-4.5c4.3,0,7.7,3.5,7.7,7.7c0,0.5,0,0.5-0.1,0.9c2.9,0.6,5.3,3.2,6.2,5.2h8    c0,0,0,0.3,0,0.3C61.9,63.2,63.1,61.7,64.8,60.7z"/><path class="st0" d="M93.6,62C93.6,62,93.6,62,93.6,62c-0.2-0.2-0.3-0.4-0.5-0.5c0,0,0,0,0,0c-0.2-0.2-0.3-0.3-0.5-0.4    c0,0-0.1,0-0.1-0.1c-0.2-0.1-0.4-0.2-0.5-0.3c0,0,0,0,0,0c-0.2-0.1-0.4-0.2-0.6-0.3c0,0-0.1,0-0.1,0c-0.2-0.1-0.4-0.1-0.6-0.2    c0.1-0.3,0.1-0.6,0.1-0.9c0-2.9-2.3-5.2-5.2-5.2c-2.1,0-3.9,1.2-4.7,3c0-0.2-0.1-0.4-0.1-0.7c0-0.1,0-0.1-0.1-0.2    c0-0.1-0.1-0.3-0.1-0.4c0-0.1-0.1-0.2-0.1-0.2c0-0.1-0.1-0.3-0.2-0.4c0-0.1-0.1-0.2-0.1-0.2c-0.1-0.1-0.1-0.2-0.2-0.4    c0-0.1-0.1-0.2-0.1-0.2c-0.1-0.1-0.2-0.3-0.3-0.4c-0.1-0.1-0.2-0.2-0.2-0.3c-0.1-0.1-0.1-0.2-0.2-0.3c-0.1-0.1-0.2-0.2-0.2-0.3    c-0.1-0.1-0.1-0.1-0.2-0.2c-0.1-0.1-0.2-0.2-0.3-0.3c-0.1-0.1-0.1-0.1-0.2-0.2c-0.1-0.1-0.2-0.2-0.3-0.3c0,0-0.1-0.1-0.1-0.1    c-0.6-0.4-1.2-0.8-1.9-1.1c0,0-0.1,0-0.1,0c-0.2-0.1-0.3-0.1-0.5-0.2c0,0-0.1,0-0.1,0c-0.2-0.1-0.3-0.1-0.5-0.2l0,0    c-0.6-0.2-1.3-0.3-2-0.3c-4.5,0-8.2,3.7-8.2,8.2c0,0.8,0.1,1.6,0.3,2.3c-1.7,0.9-2.8,2.7-2.8,4.8c0,3,2.5,5.5,5.5,5.5h22.1    c3,0,5.5-2.4,5.5-5.5c0-0.6-0.1-1.1-0.3-1.7l0,0C94.5,63.1,94.1,62.6,93.6,62z"/></g></g></svg>