<svg xmlns="http://www.w3.org/2000/svg" xmlns:xlink="http://www.w3.org/1999/xlink" version="1.1" x="0px" y="0px" viewBox="0 0 91 82" style="enable-background:new 0 0 91 91;" xml:space="preserve">
<defs>
	<style type="text/css">.fil0 {fill:white; fill-rule:nonzero}</style>
</defs>
<g>	
	<path class="fil0" d="M49.3,79.9c-11.6,0-22.9-5.8-29.4-16.4C10,47.4,15.1,26.1,31.3,16.2c7.4-4.5,16.1-6.1,24.5-4.5c0.9,0.2,1.5,0.9,1.6,1.7  s-0.4,1.7-1.2,2.1c-1.1,0.5-2.1,1-3,1.6c-5.9,3.6-10.1,9.4-11.7,16.1C39.9,40,41,47,44.6,52.9v0c6,9.8,17.9,14.5,29,11.5  c0.8-0.2,1.7,0.1,2.2,0.8c0.5,0.7,0.4,1.7-0.1,2.4c-2.4,2.9-5.2,5.3-8.4,7.3C61.7,78.2,55.5,79.9,49.3,79.9z M49,15.1  c-5.5,0-10.9,1.6-15.7,4.5c-14.3,8.8-18.7,27.5-10,41.8c8.8,14.3,27.5,18.7,41.8,10c1.1-0.7,2.1-1.4,3.1-2.2  C57.6,69.7,47,64.4,41.2,55c0,0,0,0,0,0C33,41.6,36.6,24.2,49,15.1z"/>
</g>
</svg>