<svg xmlns="http://www.w3.org/2000/svg" xmlns:xlink="http://www.w3.org/1999/xlink" version="1.1" x="0px" y="0px" viewBox="0 0 100 125" enable-background="new 0 0 100 100" xml:space="preserve"><g><path d="M78.488,34.708H61.34c-2.018-3.293-4.977-5.863-8.341-7.402V16.703h2.546c3.032,0,5.5-2.468,5.5-5.501   c0-3.032-2.468-5.5-5.5-5.5H37.2c-3.032,0-5.499,2.468-5.499,5.501c0,3.032,2.467,5.5,5.499,5.5h1.799v10.516   c-3.317,1.508-6.228,4.077-8.272,7.439l-21.715,0.06L9.001,52.715l21.176-0.059c3.096,5.785,9.017,9.34,15.676,9.34   c6.571,0,12.662-3.703,15.776-9.514h5.334c2.279,0,4.134,1.887,4.134,4.207v5.709c0,2.924,2.357,5.305,5.256,5.305h9.391   c2.898,0,5.256-2.381,5.256-5.305V47.177C90.999,40.069,85.62,34.708,78.488,34.708z M37.2,13.703   c-1.378,0-2.499-1.122-2.499-2.501s1.121-2.5,2.499-2.5h18.345c1.379,0,2.5,1.122,2.5,2.501s-1.121,2.5-2.5,2.5H37.2z    M49.999,16.703v9.539c-1.355-0.348-2.746-0.539-4.146-0.539c-1.307,0-2.597,0.169-3.854,0.477v-9.477H49.999z M87.999,62.398   c0,1.27-1.012,2.305-2.256,2.305h-9.391c-1.244,0-2.256-1.035-2.256-2.305v-5.709c0-3.975-3.2-7.208-7.134-7.208h-7.212   l-0.405,0.863c-2.464,5.254-7.761,8.651-13.493,8.651c-5.81,0-10.941-3.25-13.394-8.48l-0.406-0.866l-20.05,0.057l0.007-11.997   l20.472-0.058l0.426-0.774c2.771-5.043,7.731-8.175,12.945-8.175c5.257,0,10.605,3.307,13.31,8.229l0.427,0.777h18.899   c5.422,0,9.511,4.07,9.511,9.469V62.398z" fill="white"/><path d="M81.317,68.717c-2.788,0-9.026,13.078-9.026,16.553c0,4.979,4.049,9.029,9.026,9.029s9.027-4.051,9.027-9.029   C90.345,81.795,84.105,68.717,81.317,68.717z M81.317,91.299c-3.323,0-6.026-2.705-6.026-6.029c0-2.984,4.147-10.34,6.026-12.926   c1.879,2.584,6.027,9.941,6.027,12.926C87.345,88.594,84.641,91.299,81.317,91.299z" fill="white"/></g></svg>