<svg xmlns="http://www.w3.org/2000/svg" xmlns:xlink="http://www.w3.org/1999/xlink" version="1.1" x="0px" y="0px" viewBox="0 0 100 100" enable-background="new 0 0 100 100" xml:space="preserve">
<g display="none"><rect x="-1189.328" y="-49.245" display="inline" fill="#ffffff" width="1557.221" height="1347.135"/></g><g><path fill="#ffffff" d="M50,22.037c-15.419,0-27.964,12.544-27.964,27.963c0,15.419,12.545,27.964,27.964,27.964S77.964,65.419,77.964,50   C77.964,34.581,65.419,22.037,50,22.037z M50,72.705c-12.519,0-22.704-10.186-22.704-22.705S37.481,27.295,50,27.295   S72.704,37.481,72.704,50S62.519,72.705,50,72.705z"/><path fill="#ffffff" d="M52.63,92.37V83.6c-0.869,0.067-1.744,0.112-2.63,0.112s-1.761-0.045-2.63-0.112v8.77C47.37,93.823,48.548,95,50,95   S52.63,93.823,52.63,92.37z"/><path fill="#ffffff" d="M52.63,16.4V7.63C52.63,6.177,51.452,5,50,5s-2.63,1.177-2.63,2.629v8.77c0.869-0.067,1.744-0.112,2.63-0.112   S51.761,16.333,52.63,16.4z"/><path fill="#ffffff" d="M73.463,14.621c0.725-1.258,0.295-2.866-0.963-3.592c-1.261-0.726-2.867-0.295-3.592,0.962l-4.378,7.583   c1.591,0.761,3.11,1.646,4.551,2.637L73.463,14.621z"/><path fill="#ffffff" d="M27.5,88.971c0.415,0.239,0.866,0.353,1.312,0.353c0.909,0,1.793-0.472,2.28-1.315l4.378-7.583   c-1.591-0.761-3.11-1.646-4.551-2.637l-4.382,7.59C25.812,86.637,26.242,88.245,27.5,88.971z"/><path fill="#ffffff" d="M88.008,31.092c1.258-0.726,1.688-2.334,0.962-3.592c-0.725-1.257-2.335-1.689-3.592-0.962l-7.589,4.382   c0.991,1.441,1.876,2.96,2.637,4.55L88.008,31.092z"/><path fill="#ffffff" d="M13.309,73.815c0.446,0,0.898-0.114,1.312-0.353l7.589-4.382c-0.991-1.441-1.876-2.96-2.637-4.55l-7.582,4.378   c-1.258,0.726-1.688,2.334-0.962,3.592C11.516,73.344,12.4,73.815,13.309,73.815z"/><path fill="#ffffff" d="M83.712,50c0,0.886-0.045,1.761-0.112,2.629h8.77c1.452,0,2.63-1.177,2.63-2.629s-1.178-2.629-2.63-2.629H83.6   C83.667,48.239,83.712,49.114,83.712,50z"/><path fill="#ffffff" d="M16.288,50c0-0.886,0.045-1.761,0.112-2.629H7.63C6.178,47.371,5,48.548,5,50s1.178,2.629,2.63,2.629h8.77   C16.333,51.761,16.288,50.886,16.288,50z"/><path fill="#ffffff" d="M88.008,68.908l-7.582-4.378c-0.761,1.59-1.645,3.11-2.637,4.55l7.589,4.382c0.414,0.239,0.866,0.353,1.312,0.353   c0.909,0,1.793-0.471,2.279-1.315C89.696,71.242,89.266,69.634,88.008,68.908z"/><path fill="#ffffff" d="M11.992,31.092l7.582,4.378c0.761-1.59,1.645-3.11,2.637-4.55l-7.589-4.382c-1.258-0.727-2.867-0.295-3.592,0.962   C10.304,28.758,10.734,30.366,11.992,31.092z"/><path fill="#ffffff" d="M71.188,89.324c0.446,0,0.898-0.114,1.312-0.353c1.258-0.726,1.688-2.334,0.963-3.592l-4.382-7.59   c-1.441,0.991-2.96,1.876-4.551,2.637l4.378,7.583C69.395,88.852,70.279,89.324,71.188,89.324z"/><path fill="#ffffff" d="M30.919,22.211c1.441-0.991,2.96-1.876,4.551-2.637l-4.378-7.583c-0.726-1.257-2.333-1.689-3.592-0.962   c-1.258,0.726-1.688,2.334-0.963,3.592L30.919,22.211z"/></g></svg>